<mxfile host="app.diagrams.net" modified="2023-07-22T03:52:55.337Z" agent="Mozilla/5.0 (Windows NT 10.0; Win64; x64) AppleWebKit/537.36 (KHTML, like Gecko) Chrome/109.0.0.0 Safari/537.36" version="21.6.5" etag="QEgWMAronfRHZCN0RWtJ" type="github">
  <diagram name="第 1 页" id="tZn7O8gQrTgd0sCVI09P">
    <mxGraphModel>
      <root>
        <mxCell id="0" />
        <mxCell id="1" parent="0" />
      </root>
    </mxGraphModel>
  </diagram>
</mxfile>
